<?xml version="1.0"?>
<svg xmlns="http://www.w3.org/2000/svg" xmlns:xlink="http://www.w3.org/1999/xlink" width="919.2333332970001" height="568.4" font-family="Consolas, Menlo, 'Bitstream Vera Sans Mono', monospace, 'Powerline Symbols'" font-size="14px">
<style>
<!-- asciinema theme -->

.default-text-fill {fill: #cccccc}
.default-bg-fill {fill: #121314}

.c-0 {fill: #000000}
.c-1 {fill: #dd3c69}
.c-2 {fill: #4ebf22}
.c-3 {fill: #ddaf3c}
.c-4 {fill: #26b0d7}
.c-5 {fill: #b954e1}
.c-6 {fill: #54e1b9}
.c-7 {fill: #d9d9d9}
.c-8 {fill: #4d4d4d}
.c-9 {fill: #dd3c69}
.c-10 {fill: #4ebf22}
.c-11 {fill: #ddaf3c}
.c-12 {fill: #26b0d7}
.c-13 {fill: #b954e1}
.c-14 {fill: #54e1b9}
.c-15 {fill: #ffffff}
.c-8, .c-9, .c-10, .c-11, .c-12, .c-13, .c-14, .c-15 {font-weight: bold}

<!-- 256 colors -->

.c-16 {fill: #000000}
.c-17 {fill: #00005f}
.c-18 {fill: #000087}
.c-19 {fill: #0000af}
.c-20 {fill: #0000d7}
.c-21 {fill: #0000ff}
.c-22 {fill: #005f00}
.c-23 {fill: #005f5f}
.c-24 {fill: #005f87}
.c-25 {fill: #005faf}
.c-26 {fill: #005fd7}
.c-27 {fill: #005fff}
.c-28 {fill: #008700}
.c-29 {fill: #00875f}
.c-30 {fill: #008787}
.c-31 {fill: #0087af}
.c-32 {fill: #0087d7}
.c-33 {fill: #0087ff}
.c-34 {fill: #00af00}
.c-35 {fill: #00af5f}
.c-36 {fill: #00af87}
.c-37 {fill: #00afaf}
.c-38 {fill: #00afd7}
.c-39 {fill: #00afff}
.c-40 {fill: #00d700}
.c-41 {fill: #00d75f}
.c-42 {fill: #00d787}
.c-43 {fill: #00d7af}
.c-44 {fill: #00d7d7}
.c-45 {fill: #00d7ff}
.c-46 {fill: #00ff00}
.c-47 {fill: #00ff5f}
.c-48 {fill: #00ff87}
.c-49 {fill: #00ffaf}
.c-50 {fill: #00ffd7}
.c-51 {fill: #00ffff}
.c-52 {fill: #5f0000}
.c-53 {fill: #5f005f}
.c-54 {fill: #5f0087}
.c-55 {fill: #5f00af}
.c-56 {fill: #5f00d7}
.c-57 {fill: #5f00ff}
.c-58 {fill: #5f5f00}
.c-59 {fill: #5f5f5f}
.c-60 {fill: #5f5f87}
.c-61 {fill: #5f5faf}
.c-62 {fill: #5f5fd7}
.c-63 {fill: #5f5fff}
.c-64 {fill: #5f8700}
.c-65 {fill: #5f875f}
.c-66 {fill: #5f8787}
.c-67 {fill: #5f87af}
.c-68 {fill: #5f87d7}
.c-69 {fill: #5f87ff}
.c-70 {fill: #5faf00}
.c-71 {fill: #5faf5f}
.c-72 {fill: #5faf87}
.c-73 {fill: #5fafaf}
.c-74 {fill: #5fafd7}
.c-75 {fill: #5fafff}
.c-76 {fill: #5fd700}
.c-77 {fill: #5fd75f}
.c-78 {fill: #5fd787}
.c-79 {fill: #5fd7af}
.c-80 {fill: #5fd7d7}
.c-81 {fill: #5fd7ff}
.c-82 {fill: #5fff00}
.c-83 {fill: #5fff5f}
.c-84 {fill: #5fff87}
.c-85 {fill: #5fffaf}
.c-86 {fill: #5fffd7}
.c-87 {fill: #5fffff}
.c-88 {fill: #870000}
.c-89 {fill: #87005f}
.c-90 {fill: #870087}
.c-91 {fill: #8700af}
.c-92 {fill: #8700d7}
.c-93 {fill: #8700ff}
.c-94 {fill: #875f00}
.c-95 {fill: #875f5f}
.c-96 {fill: #875f87}
.c-97 {fill: #875faf}
.c-98 {fill: #875fd7}
.c-99 {fill: #875fff}
.c-100 {fill: #878700}
.c-101 {fill: #87875f}
.c-102 {fill: #878787}
.c-103 {fill: #8787af}
.c-104 {fill: #8787d7}
.c-105 {fill: #8787ff}
.c-106 {fill: #87af00}
.c-107 {fill: #87af5f}
.c-108 {fill: #87af87}
.c-109 {fill: #87afaf}
.c-110 {fill: #87afd7}
.c-111 {fill: #87afff}
.c-112 {fill: #87d700}
.c-113 {fill: #87d75f}
.c-114 {fill: #87d787}
.c-115 {fill: #87d7af}
.c-116 {fill: #87d7d7}
.c-117 {fill: #87d7ff}
.c-118 {fill: #87ff00}
.c-119 {fill: #87ff5f}
.c-120 {fill: #87ff87}
.c-121 {fill: #87ffaf}
.c-122 {fill: #87ffd7}
.c-123 {fill: #87ffff}
.c-124 {fill: #af0000}
.c-125 {fill: #af005f}
.c-126 {fill: #af0087}
.c-127 {fill: #af00af}
.c-128 {fill: #af00d7}
.c-129 {fill: #af00ff}
.c-130 {fill: #af5f00}
.c-131 {fill: #af5f5f}
.c-132 {fill: #af5f87}
.c-133 {fill: #af5faf}
.c-134 {fill: #af5fd7}
.c-135 {fill: #af5fff}
.c-136 {fill: #af8700}
.c-137 {fill: #af875f}
.c-138 {fill: #af8787}
.c-139 {fill: #af87af}
.c-140 {fill: #af87d7}
.c-141 {fill: #af87ff}
.c-142 {fill: #afaf00}
.c-143 {fill: #afaf5f}
.c-144 {fill: #afaf87}
.c-145 {fill: #afafaf}
.c-146 {fill: #afafd7}
.c-147 {fill: #afafff}
.c-148 {fill: #afd700}
.c-149 {fill: #afd75f}
.c-150 {fill: #afd787}
.c-151 {fill: #afd7af}
.c-152 {fill: #afd7d7}
.c-153 {fill: #afd7ff}
.c-154 {fill: #afff00}
.c-155 {fill: #afff5f}
.c-156 {fill: #afff87}
.c-157 {fill: #afffaf}
.c-158 {fill: #afffd7}
.c-159 {fill: #afffff}
.c-160 {fill: #d70000}
.c-161 {fill: #d7005f}
.c-162 {fill: #d70087}
.c-163 {fill: #d700af}
.c-164 {fill: #d700d7}
.c-165 {fill: #d700ff}
.c-166 {fill: #d75f00}
.c-167 {fill: #d75f5f}
.c-168 {fill: #d75f87}
.c-169 {fill: #d75faf}
.c-170 {fill: #d75fd7}
.c-171 {fill: #d75fff}
.c-172 {fill: #d78700}
.c-173 {fill: #d7875f}
.c-174 {fill: #d78787}
.c-175 {fill: #d787af}
.c-176 {fill: #d787d7}
.c-177 {fill: #d787ff}
.c-178 {fill: #d7af00}
.c-179 {fill: #d7af5f}
.c-180 {fill: #d7af87}
.c-181 {fill: #d7afaf}
.c-182 {fill: #d7afd7}
.c-183 {fill: #d7afff}
.c-184 {fill: #d7d700}
.c-185 {fill: #d7d75f}
.c-186 {fill: #d7d787}
.c-187 {fill: #d7d7af}
.c-188 {fill: #d7d7d7}
.c-189 {fill: #d7d7ff}
.c-190 {fill: #d7ff00}
.c-191 {fill: #d7ff5f}
.c-192 {fill: #d7ff87}
.c-193 {fill: #d7ffaf}
.c-194 {fill: #d7ffd7}
.c-195 {fill: #d7ffff}
.c-196 {fill: #ff0000}
.c-197 {fill: #ff005f}
.c-198 {fill: #ff0087}
.c-199 {fill: #ff00af}
.c-200 {fill: #ff00d7}
.c-201 {fill: #ff00ff}
.c-202 {fill: #ff5f00}
.c-203 {fill: #ff5f5f}
.c-204 {fill: #ff5f87}
.c-205 {fill: #ff5faf}
.c-206 {fill: #ff5fd7}
.c-207 {fill: #ff5fff}
.c-208 {fill: #ff8700}
.c-209 {fill: #ff875f}
.c-210 {fill: #ff8787}
.c-211 {fill: #ff87af}
.c-212 {fill: #ff87d7}
.c-213 {fill: #ff87ff}
.c-214 {fill: #ffaf00}
.c-215 {fill: #ffaf5f}
.c-216 {fill: #ffaf87}
.c-217 {fill: #ffafaf}
.c-218 {fill: #ffafd7}
.c-219 {fill: #ffafff}
.c-220 {fill: #ffd700}
.c-221 {fill: #ffd75f}
.c-222 {fill: #ffd787}
.c-223 {fill: #ffd7af}
.c-224 {fill: #ffd7d7}
.c-225 {fill: #ffd7ff}
.c-226 {fill: #ffff00}
.c-227 {fill: #ffff5f}
.c-228 {fill: #ffff87}
.c-229 {fill: #ffffaf}
.c-230 {fill: #ffffd7}
.c-231 {fill: #ffffff}
.c-232 {fill: #080808}
.c-233 {fill: #121212}
.c-234 {fill: #1c1c1c}
.c-235 {fill: #262626}
.c-236 {fill: #303030}
.c-237 {fill: #3a3a3a}
.c-238 {fill: #444444}
.c-239 {fill: #4e4e4e}
.c-240 {fill: #585858}
.c-241 {fill: #626262}
.c-242 {fill: #6c6c6c}
.c-243 {fill: #767676}
.c-244 {fill: #808080}
.c-245 {fill: #8a8a8a}
.c-246 {fill: #949494}
.c-247 {fill: #9e9e9e}
.c-248 {fill: #a8a8a8}
.c-249 {fill: #b2b2b2}
.c-250 {fill: #bcbcbc}
.c-251 {fill: #c6c6c6}
.c-252 {fill: #d0d0d0}
.c-253 {fill: #dadada}
.c-254 {fill: #e4e4e4}
.c-255 {fill: #eeeeee}

.br { font-weight: bold }
.it { font-style: italic }
.un { text-decoration: underline }
</style>

<rect width="100%" height="100%" class="default-bg-fill" rx="4" ry="4" />

<svg x="0.917%" y="1.724%" class="default-text-fill">
<g style="shape-rendering: optimizeSpeed">
<rect x="1.835%" y="79.310%" width="0.917%" height="19.7" class="c-7" />
</g>

<text class="default-text-fill">
<tspan y="0.000%">
<tspan dy="1em" x="0.000%">&gt;</tspan><tspan x="1.835%" class="br c-10">d</tspan><tspan x="2.752%" class="br c-10">e</tspan><tspan x="3.670%" class="br c-10">m</tspan><tspan x="4.587%" class="br c-10">o</tspan><tspan x="5.505%">:</tspan><tspan x="6.422%" class="br c-12">~</tspan><tspan x="7.339%" class="br c-12">/</tspan><tspan x="8.257%" class="br c-12">C</tspan><tspan x="9.174%" class="br c-12">o</tspan><tspan x="10.092%" class="br c-12">d</tspan><tspan x="11.009%" class="br c-12">e</tspan><tspan x="11.927%" class="br c-12">/</tspan><tspan x="12.844%" class="br c-12">d</tspan><tspan x="13.761%" class="br c-12">e</tspan><tspan x="14.679%" class="br c-12">m</tspan><tspan x="15.596%" class="br c-12">o</tspan>
</tspan>
<tspan y="3.448%">
<tspan dy="1em" x="0.000%">$</tspan><tspan x="1.835%">c</tspan><tspan x="2.752%">u</tspan><tspan x="3.670%">r</tspan><tspan x="4.587%">l</tspan><tspan x="6.422%">-</tspan><tspan x="7.339%">L</tspan><tspan x="9.174%">h</tspan><tspan x="10.092%">t</tspan><tspan x="11.009%">t</tspan><tspan x="11.927%">p</tspan><tspan x="12.844%">s</tspan><tspan x="13.761%">:</tspan><tspan x="14.679%">/</tspan><tspan x="15.596%">/</tspan><tspan x="16.514%">g</tspan><tspan x="17.431%">i</tspan><tspan x="18.349%">t</tspan><tspan x="19.266%">h</tspan><tspan x="20.183%">u</tspan><tspan x="21.101%">b</tspan><tspan x="22.018%">.</tspan><tspan x="22.936%">c</tspan><tspan x="23.853%">o</tspan><tspan x="24.771%">m</tspan><tspan x="25.688%">/</tspan><tspan x="26.606%">k</tspan><tspan x="27.523%">s</tspan><tspan x="28.440%">h</tspan><tspan x="29.358%">a</tspan><tspan x="30.275%">a</tspan><tspan x="31.193%">/</tspan><tspan x="32.110%">d</tspan><tspan x="33.028%">i</tspan><tspan x="33.945%">p</tspan><tspan x="34.862%">-</tspan><tspan x="35.780%">t</tspan><tspan x="36.697%">e</tspan><tspan x="37.615%">s</tspan><tspan x="38.532%">t</tspan><tspan x="39.450%">b</tspan><tspan x="40.367%">e</tspan><tspan x="41.284%">d</tspan><tspan x="42.202%">-</tspan><tspan x="43.119%">d</tspan><tspan x="44.037%">i</tspan><tspan x="44.954%">s</tspan><tspan x="45.872%">t</tspan><tspan x="46.789%">/</tspan><tspan x="47.706%">r</tspan><tspan x="48.624%">e</tspan><tspan x="49.541%">l</tspan><tspan x="50.459%">e</tspan><tspan x="51.376%">a</tspan><tspan x="52.294%">s</tspan><tspan x="53.211%">e</tspan><tspan x="54.128%">s</tspan><tspan x="55.046%">/</tspan><tspan x="55.963%">l</tspan><tspan x="56.881%">a</tspan><tspan x="57.798%">t</tspan><tspan x="58.716%">e</tspan><tspan x="59.633%">s</tspan><tspan x="60.550%">t</tspan><tspan x="61.468%">/</tspan><tspan x="62.385%">d</tspan><tspan x="63.303%">o</tspan><tspan x="64.220%">w</tspan><tspan x="65.138%">n</tspan><tspan x="66.055%">l</tspan><tspan x="66.972%">o</tspan><tspan x="67.890%">a</tspan><tspan x="68.807%">d</tspan><tspan x="69.725%">/</tspan><tspan x="70.642%">c</tspan><tspan x="71.560%">l</tspan><tspan x="72.477%">i</tspan><tspan x="73.394%">e</tspan><tspan x="74.312%">n</tspan><tspan x="75.229%">t</tspan><tspan x="76.147%">_</tspan><tspan x="77.064%">i</tspan><tspan x="77.982%">n</tspan><tspan x="78.899%">s</tspan><tspan x="79.817%">t</tspan><tspan x="80.734%">a</tspan><tspan x="81.651%">l</tspan><tspan x="82.569%">l</tspan><tspan x="83.486%">.</tspan><tspan x="84.404%">s</tspan><tspan x="85.321%">h</tspan><tspan x="87.156%">|</tspan><tspan x="88.991%">b</tspan><tspan x="89.908%">a</tspan><tspan x="90.826%">s</tspan><tspan x="91.743%">h</tspan>
</tspan>
<tspan y="6.897%">
<tspan dy="1em" x="1.835%">%</tspan><tspan x="3.670%">T</tspan><tspan x="4.587%">o</tspan><tspan x="5.505%">t</tspan><tspan x="6.422%">a</tspan><tspan x="7.339%">l</tspan><tspan x="11.927%">%</tspan><tspan x="13.761%">R</tspan><tspan x="14.679%">e</tspan><tspan x="15.596%">c</tspan><tspan x="16.514%">e</tspan><tspan x="17.431%">i</tspan><tspan x="18.349%">v</tspan><tspan x="19.266%">e</tspan><tspan x="20.183%">d</tspan><tspan x="22.018%">%</tspan><tspan x="23.853%">X</tspan><tspan x="24.771%">f</tspan><tspan x="25.688%">e</tspan><tspan x="26.606%">r</tspan><tspan x="27.523%">d</tspan><tspan x="30.275%">A</tspan><tspan x="31.193%">v</tspan><tspan x="32.110%">e</tspan><tspan x="33.028%">r</tspan><tspan x="33.945%">a</tspan><tspan x="34.862%">g</tspan><tspan x="35.780%">e</tspan><tspan x="37.615%">S</tspan><tspan x="38.532%">p</tspan><tspan x="39.450%">e</tspan><tspan x="40.367%">e</tspan><tspan x="41.284%">d</tspan><tspan x="44.954%">T</tspan><tspan x="45.872%">i</tspan><tspan x="46.789%">m</tspan><tspan x="47.706%">e</tspan><tspan x="52.294%">T</tspan><tspan x="53.211%">i</tspan><tspan x="54.128%">m</tspan><tspan x="55.046%">e</tspan><tspan x="60.550%">T</tspan><tspan x="61.468%">i</tspan><tspan x="62.385%">m</tspan><tspan x="63.303%">e</tspan><tspan x="66.055%">C</tspan><tspan x="66.972%">u</tspan><tspan x="67.890%">r</tspan><tspan x="68.807%">r</tspan><tspan x="69.725%">e</tspan><tspan x="70.642%">n</tspan><tspan x="71.560%">t</tspan>
</tspan>
<tspan y="10.345%">
<tspan dy="1em" x="30.275%">D</tspan><tspan x="31.193%">l</tspan><tspan x="32.110%">o</tspan><tspan x="33.028%">a</tspan><tspan x="33.945%">d</tspan><tspan x="36.697%">U</tspan><tspan x="37.615%">p</tspan><tspan x="38.532%">l</tspan><tspan x="39.450%">o</tspan><tspan x="40.367%">a</tspan><tspan x="41.284%">d</tspan><tspan x="44.954%">T</tspan><tspan x="45.872%">o</tspan><tspan x="46.789%">t</tspan><tspan x="47.706%">a</tspan><tspan x="48.624%">l</tspan><tspan x="52.294%">S</tspan><tspan x="53.211%">p</tspan><tspan x="54.128%">e</tspan><tspan x="55.046%">n</tspan><tspan x="55.963%">t</tspan><tspan x="60.550%">L</tspan><tspan x="61.468%">e</tspan><tspan x="62.385%">f</tspan><tspan x="63.303%">t</tspan><tspan x="66.055%">S</tspan><tspan x="66.972%">p</tspan><tspan x="67.890%">e</tspan><tspan x="68.807%">e</tspan><tspan x="69.725%">d</tspan>
</tspan>
<tspan y="13.793%">
<tspan dy="1em" x="0.000%">1</tspan><tspan x="0.917%">0</tspan><tspan x="1.835%">0</tspan><tspan x="5.505%">1</tspan><tspan x="6.422%">5</tspan><tspan x="7.339%">0</tspan><tspan x="10.092%">1</tspan><tspan x="11.009%">0</tspan><tspan x="11.927%">0</tspan><tspan x="15.596%">1</tspan><tspan x="16.514%">5</tspan><tspan x="17.431%">0</tspan><tspan x="22.018%">0</tspan><tspan x="27.523%">0</tspan><tspan x="32.110%">3</tspan><tspan x="33.028%">7</tspan><tspan x="33.945%">0</tspan><tspan x="40.367%">0</tspan><tspan x="42.202%">-</tspan><tspan x="43.119%">-</tspan><tspan x="44.037%">:</tspan><tspan x="44.954%">-</tspan><tspan x="45.872%">-</tspan><tspan x="46.789%">:</tspan><tspan x="47.706%">-</tspan><tspan x="48.624%">-</tspan><tspan x="50.459%">-</tspan><tspan x="51.376%">-</tspan><tspan x="52.294%">:</tspan><tspan x="53.211%">-</tspan><tspan x="54.128%">-</tspan><tspan x="55.046%">:</tspan><tspan x="55.963%">-</tspan><tspan x="56.881%">-</tspan><tspan x="58.716%">-</tspan><tspan x="59.633%">-</tspan><tspan x="60.550%">:</tspan><tspan x="61.468%">-</tspan><tspan x="62.385%">-</tspan><tspan x="63.303%">:</tspan><tspan x="64.220%">-</tspan><tspan x="65.138%">-</tspan><tspan x="68.807%">3</tspan><tspan x="69.725%">6</tspan><tspan x="70.642%">9</tspan>
</tspan>
<tspan y="17.241%">
<tspan dy="1em" x="0.000%">1</tspan><tspan x="0.917%">0</tspan><tspan x="1.835%">0</tspan><tspan x="5.505%">6</tspan><tspan x="6.422%">5</tspan><tspan x="7.339%">6</tspan><tspan x="10.092%">1</tspan><tspan x="11.009%">0</tspan><tspan x="11.927%">0</tspan><tspan x="15.596%">6</tspan><tspan x="16.514%">5</tspan><tspan x="17.431%">6</tspan><tspan x="22.018%">0</tspan><tspan x="27.523%">0</tspan><tspan x="32.110%">9</tspan><tspan x="33.028%">4</tspan><tspan x="33.945%">5</tspan><tspan x="40.367%">0</tspan><tspan x="42.202%">-</tspan><tspan x="43.119%">-</tspan><tspan x="44.037%">:</tspan><tspan x="44.954%">-</tspan><tspan x="45.872%">-</tspan><tspan x="46.789%">:</tspan><tspan x="47.706%">-</tspan><tspan x="48.624%">-</tspan><tspan x="50.459%">-</tspan><tspan x="51.376%">-</tspan><tspan x="52.294%">:</tspan><tspan x="53.211%">-</tspan><tspan x="54.128%">-</tspan><tspan x="55.046%">:</tspan><tspan x="55.963%">-</tspan><tspan x="56.881%">-</tspan><tspan x="58.716%">-</tspan><tspan x="59.633%">-</tspan><tspan x="60.550%">:</tspan><tspan x="61.468%">-</tspan><tspan x="62.385%">-</tspan><tspan x="63.303%">:</tspan><tspan x="64.220%">-</tspan><tspan x="65.138%">-</tspan><tspan x="68.807%">9</tspan><tspan x="69.725%">4</tspan><tspan x="70.642%">5</tspan>
</tspan>
<tspan y="20.690%">
<tspan dy="1em" x="0.000%">1</tspan><tspan x="0.917%">0</tspan><tspan x="1.835%">0</tspan><tspan x="4.587%">1</tspan><tspan x="5.505%">3</tspan><tspan x="6.422%">2</tspan><tspan x="7.339%">9</tspan><tspan x="10.092%">1</tspan><tspan x="11.009%">0</tspan><tspan x="11.927%">0</tspan><tspan x="14.679%">1</tspan><tspan x="15.596%">3</tspan><tspan x="16.514%">2</tspan><tspan x="17.431%">9</tspan><tspan x="22.018%">0</tspan><tspan x="27.523%">0</tspan><tspan x="32.110%">5</tspan><tspan x="33.028%">6</tspan><tspan x="33.945%">9</tspan><tspan x="40.367%">0</tspan><tspan x="43.119%">0</tspan><tspan x="44.037%">:</tspan><tspan x="44.954%">0</tspan><tspan x="45.872%">0</tspan><tspan x="46.789%">:</tspan><tspan x="47.706%">0</tspan><tspan x="48.624%">2</tspan><tspan x="51.376%">0</tspan><tspan x="52.294%">:</tspan><tspan x="53.211%">0</tspan><tspan x="54.128%">0</tspan><tspan x="55.046%">:</tspan><tspan x="55.963%">0</tspan><tspan x="56.881%">2</tspan><tspan x="58.716%">-</tspan><tspan x="59.633%">-</tspan><tspan x="60.550%">:</tspan><tspan x="61.468%">-</tspan><tspan x="62.385%">-</tspan><tspan x="63.303%">:</tspan><tspan x="64.220%">-</tspan><tspan x="65.138%">-</tspan><tspan x="67.890%">3</tspan><tspan x="68.807%">3</tspan><tspan x="69.725%">0</tspan><tspan x="70.642%">5</tspan>
</tspan>
<tspan y="24.138%">
<tspan dy="1em" x="0.000%">C</tspan><tspan x="0.917%">r</tspan><tspan x="1.835%">e</tspan><tspan x="2.752%">a</tspan><tspan x="3.670%">t</tspan><tspan x="4.587%">i</tspan><tspan x="5.505%">n</tspan><tspan x="6.422%">g</tspan><tspan x="8.257%">&#39;</tspan><tspan x="9.174%">/</tspan><tspan x="10.092%">h</tspan><tspan x="11.009%">o</tspan><tspan x="11.927%">m</tspan><tspan x="12.844%">e</tspan><tspan x="13.761%">/</tspan><tspan x="14.679%">k</tspan><tspan x="15.596%">v</tspan><tspan x="16.514%">e</tspan><tspan x="17.431%">i</tspan><tspan x="18.349%">n</tspan><tspan x="19.266%">b</tspan><tspan x="20.183%">a</tspan><tspan x="21.101%">h</tspan><tspan x="22.018%">s</tspan><tspan x="22.936%">/</tspan><tspan x="23.853%">.</tspan><tspan x="24.771%">l</tspan><tspan x="25.688%">o</tspan><tspan x="26.606%">c</tspan><tspan x="27.523%">a</tspan><tspan x="28.440%">l</tspan><tspan x="29.358%">/</tspan><tspan x="30.275%">s</tspan><tspan x="31.193%">h</tspan><tspan x="32.110%">a</tspan><tspan x="33.028%">r</tspan><tspan x="33.945%">e</tspan><tspan x="34.862%">/</tspan><tspan x="35.780%">d</tspan><tspan x="36.697%">i</tspan><tspan x="37.615%">p</tspan><tspan x="38.532%">_</tspan><tspan x="39.450%">p</tspan><tspan x="40.367%">l</tspan><tspan x="41.284%">a</tspan><tspan x="42.202%">t</tspan><tspan x="43.119%">f</tspan><tspan x="44.037%">o</tspan><tspan x="44.954%">r</tspan><tspan x="45.872%">m</tspan><tspan x="46.789%">/</tspan><tspan x="47.706%">b</tspan><tspan x="48.624%">i</tspan><tspan x="49.541%">n</tspan><tspan x="50.459%">&#39;</tspan><tspan x="52.294%">t</tspan><tspan x="53.211%">o</tspan><tspan x="55.046%">s</tspan><tspan x="55.963%">t</tspan><tspan x="56.881%">o</tspan><tspan x="57.798%">r</tspan><tspan x="58.716%">e</tspan><tspan x="60.550%">D</tspan><tspan x="61.468%">I</tspan><tspan x="62.385%">P</tspan><tspan x="64.220%">p</tspan><tspan x="65.138%">l</tspan><tspan x="66.055%">a</tspan><tspan x="66.972%">t</tspan><tspan x="67.890%">f</tspan><tspan x="68.807%">o</tspan><tspan x="69.725%">r</tspan><tspan x="70.642%">m</tspan><tspan x="72.477%">b</tspan><tspan x="73.394%">i</tspan><tspan x="74.312%">n</tspan><tspan x="75.229%">a</tspan><tspan x="76.147%">r</tspan><tspan x="77.064%">i</tspan><tspan x="77.982%">e</tspan><tspan x="78.899%">s</tspan>
</tspan>
<tspan y="27.586%">
<tspan dy="1em" x="0.000%">D</tspan><tspan x="0.917%">o</tspan><tspan x="1.835%">w</tspan><tspan x="2.752%">n</tspan><tspan x="3.670%">l</tspan><tspan x="4.587%">o</tspan><tspan x="5.505%">a</tspan><tspan x="6.422%">d</tspan><tspan x="7.339%">i</tspan><tspan x="8.257%">n</tspan><tspan x="9.174%">g</tspan><tspan x="11.009%">l</tspan><tspan x="11.927%">a</tspan><tspan x="12.844%">t</tspan><tspan x="13.761%">e</tspan><tspan x="14.679%">s</tspan><tspan x="15.596%">t</tspan><tspan x="17.431%">D</tspan><tspan x="18.349%">I</tspan><tspan x="19.266%">P</tspan><tspan x="21.101%">b</tspan><tspan x="22.018%">i</tspan><tspan x="22.936%">n</tspan><tspan x="23.853%">a</tspan><tspan x="24.771%">r</tspan><tspan x="25.688%">y</tspan><tspan x="27.523%">f</tspan><tspan x="28.440%">r</tspan><tspan x="29.358%">o</tspan><tspan x="30.275%">m</tspan><tspan x="32.110%">&#39;</tspan><tspan x="33.028%">h</tspan><tspan x="33.945%">t</tspan><tspan x="34.862%">t</tspan><tspan x="35.780%">p</tspan><tspan x="36.697%">s</tspan><tspan x="37.615%">:</tspan><tspan x="38.532%">/</tspan><tspan x="39.450%">/</tspan><tspan x="40.367%">g</tspan><tspan x="41.284%">i</tspan><tspan x="42.202%">t</tspan><tspan x="43.119%">h</tspan><tspan x="44.037%">u</tspan><tspan x="44.954%">b</tspan><tspan x="45.872%">.</tspan><tspan x="46.789%">c</tspan><tspan x="47.706%">o</tspan><tspan x="48.624%">m</tspan><tspan x="49.541%">/</tspan><tspan x="50.459%">k</tspan><tspan x="51.376%">s</tspan><tspan x="52.294%">h</tspan><tspan x="53.211%">a</tspan><tspan x="54.128%">a</tspan><tspan x="55.046%">/</tspan><tspan x="55.963%">d</tspan><tspan x="56.881%">i</tspan><tspan x="57.798%">p</tspan><tspan x="58.716%">-</tspan><tspan x="59.633%">t</tspan><tspan x="60.550%">e</tspan><tspan x="61.468%">s</tspan><tspan x="62.385%">t</tspan><tspan x="63.303%">b</tspan><tspan x="64.220%">e</tspan><tspan x="65.138%">d</tspan><tspan x="66.055%">-</tspan><tspan x="66.972%">d</tspan><tspan x="67.890%">i</tspan><tspan x="68.807%">s</tspan><tspan x="69.725%">t</tspan><tspan x="70.642%">/</tspan><tspan x="71.560%">r</tspan><tspan x="72.477%">e</tspan><tspan x="73.394%">l</tspan><tspan x="74.312%">e</tspan><tspan x="75.229%">a</tspan><tspan x="76.147%">s</tspan><tspan x="77.064%">e</tspan><tspan x="77.982%">s</tspan><tspan x="78.899%">/</tspan><tspan x="79.817%">l</tspan><tspan x="80.734%">a</tspan><tspan x="81.651%">t</tspan><tspan x="82.569%">e</tspan><tspan x="83.486%">s</tspan><tspan x="84.404%">t</tspan><tspan x="85.321%">/</tspan><tspan x="86.239%">d</tspan><tspan x="87.156%">o</tspan><tspan x="88.073%">w</tspan><tspan x="88.991%">n</tspan><tspan x="89.908%">l</tspan><tspan x="90.826%">o</tspan><tspan x="91.743%">a</tspan><tspan x="92.661%">d</tspan><tspan x="93.578%">/</tspan><tspan x="94.495%">d</tspan><tspan x="95.413%">i</tspan><tspan x="96.330%">p</tspan><tspan x="97.248%">_</tspan>
</tspan>
<tspan y="31.034%">
<tspan dy="1em" x="0.000%">c</tspan><tspan x="0.917%">l</tspan><tspan x="1.835%">i</tspan><tspan x="2.752%">e</tspan><tspan x="3.670%">n</tspan><tspan x="4.587%">t</tspan><tspan x="5.505%">_</tspan><tspan x="6.422%">a</tspan><tspan x="7.339%">m</tspan><tspan x="8.257%">d</tspan><tspan x="9.174%">6</tspan><tspan x="10.092%">4</tspan><tspan x="11.009%">&#39;</tspan>
</tspan>
<tspan y="34.483%">
<tspan dy="1em" x="1.835%">%</tspan><tspan x="3.670%">T</tspan><tspan x="4.587%">o</tspan><tspan x="5.505%">t</tspan><tspan x="6.422%">a</tspan><tspan x="7.339%">l</tspan><tspan x="11.927%">%</tspan><tspan x="13.761%">R</tspan><tspan x="14.679%">e</tspan><tspan x="15.596%">c</tspan><tspan x="16.514%">e</tspan><tspan x="17.431%">i</tspan><tspan x="18.349%">v</tspan><tspan x="19.266%">e</tspan><tspan x="20.183%">d</tspan><tspan x="22.018%">%</tspan><tspan x="23.853%">X</tspan><tspan x="24.771%">f</tspan><tspan x="25.688%">e</tspan><tspan x="26.606%">r</tspan><tspan x="27.523%">d</tspan><tspan x="30.275%">A</tspan><tspan x="31.193%">v</tspan><tspan x="32.110%">e</tspan><tspan x="33.028%">r</tspan><tspan x="33.945%">a</tspan><tspan x="34.862%">g</tspan><tspan x="35.780%">e</tspan><tspan x="37.615%">S</tspan><tspan x="38.532%">p</tspan><tspan x="39.450%">e</tspan><tspan x="40.367%">e</tspan><tspan x="41.284%">d</tspan><tspan x="44.954%">T</tspan><tspan x="45.872%">i</tspan><tspan x="46.789%">m</tspan><tspan x="47.706%">e</tspan><tspan x="52.294%">T</tspan><tspan x="53.211%">i</tspan><tspan x="54.128%">m</tspan><tspan x="55.046%">e</tspan><tspan x="60.550%">T</tspan><tspan x="61.468%">i</tspan><tspan x="62.385%">m</tspan><tspan x="63.303%">e</tspan><tspan x="66.055%">C</tspan><tspan x="66.972%">u</tspan><tspan x="67.890%">r</tspan><tspan x="68.807%">r</tspan><tspan x="69.725%">e</tspan><tspan x="70.642%">n</tspan><tspan x="71.560%">t</tspan>
</tspan>
<tspan y="37.931%">
<tspan dy="1em" x="30.275%">D</tspan><tspan x="31.193%">l</tspan><tspan x="32.110%">o</tspan><tspan x="33.028%">a</tspan><tspan x="33.945%">d</tspan><tspan x="36.697%">U</tspan><tspan x="37.615%">p</tspan><tspan x="38.532%">l</tspan><tspan x="39.450%">o</tspan><tspan x="40.367%">a</tspan><tspan x="41.284%">d</tspan><tspan x="44.954%">T</tspan><tspan x="45.872%">o</tspan><tspan x="46.789%">t</tspan><tspan x="47.706%">a</tspan><tspan x="48.624%">l</tspan><tspan x="52.294%">S</tspan><tspan x="53.211%">p</tspan><tspan x="54.128%">e</tspan><tspan x="55.046%">n</tspan><tspan x="55.963%">t</tspan><tspan x="60.550%">L</tspan><tspan x="61.468%">e</tspan><tspan x="62.385%">f</tspan><tspan x="63.303%">t</tspan><tspan x="66.055%">S</tspan><tspan x="66.972%">p</tspan><tspan x="67.890%">e</tspan><tspan x="68.807%">e</tspan><tspan x="69.725%">d</tspan>
</tspan>
<tspan y="41.379%">
<tspan dy="1em" x="0.000%">1</tspan><tspan x="0.917%">0</tspan><tspan x="1.835%">0</tspan><tspan x="5.505%">1</tspan><tspan x="6.422%">4</tspan><tspan x="7.339%">9</tspan><tspan x="10.092%">1</tspan><tspan x="11.009%">0</tspan><tspan x="11.927%">0</tspan><tspan x="15.596%">1</tspan><tspan x="16.514%">4</tspan><tspan x="17.431%">9</tspan><tspan x="22.018%">0</tspan><tspan x="27.523%">0</tspan><tspan x="32.110%">3</tspan><tspan x="33.028%">8</tspan><tspan x="33.945%">6</tspan><tspan x="40.367%">0</tspan><tspan x="42.202%">-</tspan><tspan x="43.119%">-</tspan><tspan x="44.037%">:</tspan><tspan x="44.954%">-</tspan><tspan x="45.872%">-</tspan><tspan x="46.789%">:</tspan><tspan x="47.706%">-</tspan><tspan x="48.624%">-</tspan><tspan x="50.459%">-</tspan><tspan x="51.376%">-</tspan><tspan x="52.294%">:</tspan><tspan x="53.211%">-</tspan><tspan x="54.128%">-</tspan><tspan x="55.046%">:</tspan><tspan x="55.963%">-</tspan><tspan x="56.881%">-</tspan><tspan x="58.716%">-</tspan><tspan x="59.633%">-</tspan><tspan x="60.550%">:</tspan><tspan x="61.468%">-</tspan><tspan x="62.385%">-</tspan><tspan x="63.303%">:</tspan><tspan x="64.220%">-</tspan><tspan x="65.138%">-</tspan><tspan x="68.807%">3</tspan><tspan x="69.725%">8</tspan><tspan x="70.642%">6</tspan>
</tspan>
<tspan y="44.828%">
<tspan dy="1em" x="0.000%">1</tspan><tspan x="0.917%">0</tspan><tspan x="1.835%">0</tspan><tspan x="5.505%">6</tspan><tspan x="6.422%">5</tspan><tspan x="7.339%">5</tspan><tspan x="10.092%">1</tspan><tspan x="11.009%">0</tspan><tspan x="11.927%">0</tspan><tspan x="15.596%">6</tspan><tspan x="16.514%">5</tspan><tspan x="17.431%">5</tspan><tspan x="22.018%">0</tspan><tspan x="27.523%">0</tspan><tspan x="32.110%">9</tspan><tspan x="33.028%">3</tspan><tspan x="33.945%">3</tspan><tspan x="40.367%">0</tspan><tspan x="42.202%">-</tspan><tspan x="43.119%">-</tspan><tspan x="44.037%">:</tspan><tspan x="44.954%">-</tspan><tspan x="45.872%">-</tspan><tspan x="46.789%">:</tspan><tspan x="47.706%">-</tspan><tspan x="48.624%">-</tspan><tspan x="50.459%">-</tspan><tspan x="51.376%">-</tspan><tspan x="52.294%">:</tspan><tspan x="53.211%">-</tspan><tspan x="54.128%">-</tspan><tspan x="55.046%">:</tspan><tspan x="55.963%">-</tspan><tspan x="56.881%">-</tspan><tspan x="58.716%">-</tspan><tspan x="59.633%">-</tspan><tspan x="60.550%">:</tspan><tspan x="61.468%">-</tspan><tspan x="62.385%">-</tspan><tspan x="63.303%">:</tspan><tspan x="64.220%">-</tspan><tspan x="65.138%">-</tspan><tspan x="68.807%">9</tspan><tspan x="69.725%">3</tspan><tspan x="70.642%">3</tspan>
</tspan>
<tspan y="48.276%">
<tspan dy="1em" x="0.000%">1</tspan><tspan x="0.917%">0</tspan><tspan x="1.835%">0</tspan><tspan x="3.670%">1</tspan><tspan x="4.587%">9</tspan><tspan x="5.505%">.</tspan><tspan x="6.422%">4</tspan><tspan x="7.339%">M</tspan><tspan x="10.092%">1</tspan><tspan x="11.009%">0</tspan><tspan x="11.927%">0</tspan><tspan x="13.761%">1</tspan><tspan x="14.679%">9</tspan><tspan x="15.596%">.</tspan><tspan x="16.514%">4</tspan><tspan x="17.431%">M</tspan><tspan x="22.018%">0</tspan><tspan x="27.523%">0</tspan><tspan x="31.193%">4</tspan><tspan x="32.110%">6</tspan><tspan x="33.028%">8</tspan><tspan x="33.945%">k</tspan><tspan x="40.367%">0</tspan><tspan x="43.119%">0</tspan><tspan x="44.037%">:</tspan><tspan x="44.954%">0</tspan><tspan x="45.872%">0</tspan><tspan x="46.789%">:</tspan><tspan x="47.706%">4</tspan><tspan x="48.624%">2</tspan><tspan x="51.376%">0</tspan><tspan x="52.294%">:</tspan><tspan x="53.211%">0</tspan><tspan x="54.128%">0</tspan><tspan x="55.046%">:</tspan><tspan x="55.963%">4</tspan><tspan x="56.881%">2</tspan><tspan x="58.716%">-</tspan><tspan x="59.633%">-</tspan><tspan x="60.550%">:</tspan><tspan x="61.468%">-</tspan><tspan x="62.385%">-</tspan><tspan x="63.303%">:</tspan><tspan x="64.220%">-</tspan><tspan x="65.138%">-</tspan><tspan x="67.890%">5</tspan><tspan x="68.807%">9</tspan><tspan x="69.725%">5</tspan><tspan x="70.642%">k</tspan>
</tspan>
<tspan y="51.724%">
<tspan dy="1em" x="0.000%">D</tspan><tspan x="0.917%">I</tspan><tspan x="1.835%">P</tspan><tspan x="3.670%">p</tspan><tspan x="4.587%">l</tspan><tspan x="5.505%">a</tspan><tspan x="6.422%">t</tspan><tspan x="7.339%">f</tspan><tspan x="8.257%">o</tspan><tspan x="9.174%">r</tspan><tspan x="10.092%">m</tspan><tspan x="11.927%">b</tspan><tspan x="12.844%">i</tspan><tspan x="13.761%">n</tspan><tspan x="14.679%">a</tspan><tspan x="15.596%">r</tspan><tspan x="16.514%">i</tspan><tspan x="17.431%">e</tspan><tspan x="18.349%">s</tspan><tspan x="20.183%">n</tspan><tspan x="21.101%">o</tspan><tspan x="22.018%">t</tspan><tspan x="23.853%">a</tspan><tspan x="24.771%">d</tspan><tspan x="25.688%">d</tspan><tspan x="26.606%">e</tspan><tspan x="27.523%">d</tspan><tspan x="29.358%">t</tspan><tspan x="30.275%">o</tspan><tspan x="32.110%">p</tspan><tspan x="33.028%">a</tspan><tspan x="33.945%">t</tspan><tspan x="34.862%">h</tspan><tspan x="35.780%">,</tspan><tspan x="37.615%">a</tspan><tspan x="38.532%">d</tspan><tspan x="39.450%">d</tspan><tspan x="40.367%">i</tspan><tspan x="41.284%">n</tspan><tspan x="42.202%">g</tspan><tspan x="44.037%">t</tspan><tspan x="44.954%">o</tspan><tspan x="46.789%">p</tspan><tspan x="47.706%">r</tspan><tspan x="48.624%">o</tspan><tspan x="49.541%">f</tspan><tspan x="50.459%">i</tspan><tspan x="51.376%">l</tspan><tspan x="52.294%">e</tspan>
</tspan>
<tspan y="55.172%">
<tspan dy="1em" x="0.000%" class="br c-10">S</tspan><tspan x="0.917%" class="br c-10">u</tspan><tspan x="1.835%" class="br c-10">c</tspan><tspan x="2.752%" class="br c-10">c</tspan><tspan x="3.670%" class="br c-10">e</tspan><tspan x="4.587%" class="br c-10">s</tspan><tspan x="5.505%" class="br c-10">s</tspan><tspan x="6.422%" class="br c-10">:</tspan><tspan x="8.257%">S</tspan><tspan x="9.174%">e</tspan><tspan x="10.092%">t</tspan><tspan x="11.927%">s</tspan><tspan x="12.844%">t</tspan><tspan x="13.761%">a</tspan><tspan x="14.679%">t</tspan><tspan x="15.596%">i</tspan><tspan x="16.514%">c</tspan><tspan x="18.349%">s</tspan><tspan x="19.266%">e</tspan><tspan x="20.183%">r</tspan><tspan x="21.101%">v</tspan><tspan x="22.018%">e</tspan><tspan x="22.936%">r</tspan><tspan x="24.771%">U</tspan><tspan x="25.688%">R</tspan><tspan x="26.606%">L</tspan>
</tspan>
<tspan y="58.621%">
<tspan dy="1em" x="0.000%" class="br c-10">S</tspan><tspan x="0.917%" class="br c-10">u</tspan><tspan x="1.835%" class="br c-10">c</tspan><tspan x="2.752%" class="br c-10">c</tspan><tspan x="3.670%" class="br c-10">e</tspan><tspan x="4.587%" class="br c-10">s</tspan><tspan x="5.505%" class="br c-10">s</tspan><tspan x="6.422%" class="br c-10">:</tspan><tspan x="8.257%">S</tspan><tspan x="9.174%">e</tspan><tspan x="10.092%">t</tspan><tspan x="11.927%">c</tspan><tspan x="12.844%">o</tspan><tspan x="13.761%">n</tspan><tspan x="14.679%">t</tspan><tspan x="15.596%">r</tspan><tspan x="16.514%">o</tspan><tspan x="17.431%">l</tspan><tspan x="19.266%">s</tspan><tspan x="20.183%">e</tspan><tspan x="21.101%">r</tspan><tspan x="22.018%">v</tspan><tspan x="22.936%">e</tspan><tspan x="23.853%">r</tspan><tspan x="25.688%">U</tspan><tspan x="26.606%">R</tspan><tspan x="27.523%">L</tspan>
</tspan>
<tspan y="62.069%">
<tspan dy="1em" x="0.000%">R</tspan><tspan x="0.917%">e</tspan><tspan x="1.835%">s</tspan><tspan x="2.752%">t</tspan><tspan x="3.670%">a</tspan><tspan x="4.587%">r</tspan><tspan x="5.505%">t</tspan><tspan x="7.339%">y</tspan><tspan x="8.257%">o</tspan><tspan x="9.174%">u</tspan><tspan x="10.092%">r</tspan><tspan x="11.927%">s</tspan><tspan x="12.844%">h</tspan><tspan x="13.761%">e</tspan><tspan x="14.679%">l</tspan><tspan x="15.596%">l</tspan><tspan x="17.431%">t</tspan><tspan x="18.349%">o</tspan><tspan x="20.183%">u</tspan><tspan x="21.101%">s</tspan><tspan x="22.018%">e</tspan><tspan x="23.853%">&#39;</tspan><tspan x="24.771%">d</tspan><tspan x="25.688%">i</tspan><tspan x="26.606%">p</tspan><tspan x="27.523%">_</tspan><tspan x="28.440%">c</tspan><tspan x="29.358%">l</tspan><tspan x="30.275%">i</tspan><tspan x="31.193%">e</tspan><tspan x="32.110%">n</tspan><tspan x="33.028%">t</tspan><tspan x="33.945%">&#39;</tspan><tspan x="35.780%">b</tspan><tspan x="36.697%">y</tspan><tspan x="38.532%">r</tspan><tspan x="39.450%">u</tspan><tspan x="40.367%">n</tspan><tspan x="41.284%">n</tspan><tspan x="42.202%">i</tspan><tspan x="43.119%">n</tspan><tspan x="44.037%">g</tspan><tspan x="45.872%">t</tspan><tspan x="46.789%">h</tspan><tspan x="47.706%">e</tspan><tspan x="49.541%">f</tspan><tspan x="50.459%">o</tspan><tspan x="51.376%">l</tspan><tspan x="52.294%">l</tspan><tspan x="53.211%">o</tspan><tspan x="54.128%">w</tspan><tspan x="55.046%">i</tspan><tspan x="55.963%">n</tspan><tspan x="56.881%">g</tspan><tspan x="57.798%">:</tspan>
</tspan>
<tspan y="65.517%">
<tspan dy="1em" x="0.000%">b</tspan><tspan x="0.917%">a</tspan><tspan x="1.835%">s</tspan><tspan x="2.752%">h</tspan>
</tspan>
<tspan y="68.966%">
<tspan dy="1em" x="0.000%">&gt;</tspan><tspan x="1.835%" class="br c-10">d</tspan><tspan x="2.752%" class="br c-10">e</tspan><tspan x="3.670%" class="br c-10">m</tspan><tspan x="4.587%" class="br c-10">o</tspan><tspan x="5.505%">:</tspan><tspan x="6.422%" class="br c-12">~</tspan><tspan x="7.339%" class="br c-12">/</tspan><tspan x="8.257%" class="br c-12">C</tspan><tspan x="9.174%" class="br c-12">o</tspan><tspan x="10.092%" class="br c-12">d</tspan><tspan x="11.009%" class="br c-12">e</tspan><tspan x="11.927%" class="br c-12">/</tspan><tspan x="12.844%" class="br c-12">d</tspan><tspan x="13.761%" class="br c-12">e</tspan><tspan x="14.679%" class="br c-12">m</tspan><tspan x="15.596%" class="br c-12">o</tspan>
</tspan>
<tspan y="72.414%">
<tspan dy="1em" x="0.000%">$</tspan><tspan x="1.835%">b</tspan><tspan x="2.752%">a</tspan><tspan x="3.670%">s</tspan><tspan x="4.587%">h</tspan>
</tspan>
<tspan y="75.862%">
<tspan dy="1em" x="0.000%">&gt;</tspan><tspan x="1.835%" class="br c-10">d</tspan><tspan x="2.752%" class="br c-10">e</tspan><tspan x="3.670%" class="br c-10">m</tspan><tspan x="4.587%" class="br c-10">o</tspan><tspan x="5.505%">:</tspan><tspan x="6.422%" class="br c-12">~</tspan><tspan x="7.339%" class="br c-12">/</tspan><tspan x="8.257%" class="br c-12">C</tspan><tspan x="9.174%" class="br c-12">o</tspan><tspan x="10.092%" class="br c-12">d</tspan><tspan x="11.009%" class="br c-12">e</tspan><tspan x="11.927%" class="br c-12">/</tspan><tspan x="12.844%" class="br c-12">d</tspan><tspan x="13.761%" class="br c-12">e</tspan><tspan x="14.679%" class="br c-12">m</tspan><tspan x="15.596%" class="br c-12">o</tspan>
</tspan>
<tspan y="79.310%">
<tspan dy="1em" x="0.000%">$</tspan>
</tspan>
<tspan y="82.759%">

</tspan>
<tspan y="86.207%">

</tspan>
<tspan y="89.655%">

</tspan>
<tspan y="93.103%">

</tspan>

</text>

<g transform="translate(-50 -50)">
<svg x="50%" y="50%" width="100" height="100">
<svg version="1.1" xmlns="http://www.w3.org/2000/svg" viewBox="0 0 866.0254037844387 866.0254037844387">
  <defs>
    <mask id="small-triangle-mask">
      <rect width="100%" height="100%" fill="white"/>
      <polygon points="508.01270189221935 433.01270189221935, 208.0127018922194 259.8076211353316, 208.01270189221927 606.217782649107" fill="black"></polygon>
    </mask>
  </defs>
  <polygon points="808.0127018922194 433.01270189221935, 58.01270189221947 -1.1368683772161603e-13, 58.01270189221913 866.0254037844386" mask="url(#small-triangle-mask)" fill="white"></polygon>
  <polyline points="481.2177826491071 333.0127018922194, 134.80762113533166 533.0127018922194" stroke="white" stroke-width="90"></polyline>
</svg>

</svg>
</g>
</svg>
</svg>
